<mxfile host="app.diagrams.net" modified="2024-05-17T16:22:14.933Z" agent="Mozilla/5.0 (Macintosh; Intel Mac OS X 10_15_7) AppleWebKit/605.1.15 (KHTML, like Gecko) Version/17.4.1 Safari/605.1.15" etag="nYcP6mq1xHeEDlVBL-X2" version="24.4.4" type="device">
  <diagram name="Страница — 1" id="ZM5ZbdQWNvH6iEX0VW7t">
    <mxGraphModel dx="1420" dy="1917" grid="1" gridSize="10" guides="1" tooltips="1" connect="1" arrows="1" fold="1" page="1" pageScale="1" pageWidth="827" pageHeight="1169" math="0" shadow="0">
      <root>
        <mxCell id="0" />
        <mxCell id="1" parent="0" />
        <mxCell id="8zbn0bg1ZGtQ6dDu68Se-31" value="user-service" style="rounded=0;whiteSpace=wrap;html=1;" vertex="1" parent="1">
          <mxGeometry x="410" y="10" width="120" height="60" as="geometry" />
        </mxCell>
        <mxCell id="8zbn0bg1ZGtQ6dDu68Se-35" value="account-service" style="rounded=0;whiteSpace=wrap;html=1;" vertex="1" parent="1">
          <mxGeometry x="70" y="390" width="120" height="60" as="geometry" />
        </mxCell>
        <mxCell id="8zbn0bg1ZGtQ6dDu68Se-63" style="edgeStyle=orthogonalEdgeStyle;rounded=0;orthogonalLoop=1;jettySize=auto;html=1;exitX=0.5;exitY=1;exitDx=0;exitDy=0;" edge="1" parent="1" source="8zbn0bg1ZGtQ6dDu68Se-37">
          <mxGeometry relative="1" as="geometry">
            <mxPoint x="340" y="500" as="targetPoint" />
          </mxGeometry>
        </mxCell>
        <mxCell id="8zbn0bg1ZGtQ6dDu68Se-37" value="classifier-service" style="rounded=0;whiteSpace=wrap;html=1;" vertex="1" parent="1">
          <mxGeometry x="280" y="390" width="120" height="60" as="geometry" />
        </mxCell>
        <mxCell id="8zbn0bg1ZGtQ6dDu68Se-39" value="audit-service" style="rounded=0;whiteSpace=wrap;html=1;" vertex="1" parent="1">
          <mxGeometry x="90" y="130" width="120" height="60" as="geometry" />
        </mxCell>
        <mxCell id="8zbn0bg1ZGtQ6dDu68Se-58" style="edgeStyle=orthogonalEdgeStyle;rounded=0;orthogonalLoop=1;jettySize=auto;html=1;exitX=0;exitY=0.5;exitDx=0;exitDy=0;entryX=1;entryY=0.5;entryDx=0;entryDy=0;" edge="1" parent="1" source="8zbn0bg1ZGtQ6dDu68Se-43" target="8zbn0bg1ZGtQ6dDu68Se-37">
          <mxGeometry relative="1" as="geometry" />
        </mxCell>
        <mxCell id="8zbn0bg1ZGtQ6dDu68Se-69" value="HTTP GET&lt;div&gt;cache (5h)&lt;/div&gt;" style="edgeLabel;html=1;align=center;verticalAlign=middle;resizable=0;points=[];" vertex="1" connectable="0" parent="8zbn0bg1ZGtQ6dDu68Se-58">
          <mxGeometry x="-0.219" relative="1" as="geometry">
            <mxPoint as="offset" />
          </mxGeometry>
        </mxCell>
        <mxCell id="8zbn0bg1ZGtQ6dDu68Se-43" value="report-service" style="rounded=0;whiteSpace=wrap;html=1;" vertex="1" parent="1">
          <mxGeometry x="610" y="390" width="120" height="60" as="geometry" />
        </mxCell>
        <mxCell id="8zbn0bg1ZGtQ6dDu68Se-47" value="account-scheduler-service" style="rounded=0;whiteSpace=wrap;html=1;" vertex="1" parent="1">
          <mxGeometry x="650" y="110" width="120" height="60" as="geometry" />
        </mxCell>
        <mxCell id="8zbn0bg1ZGtQ6dDu68Se-52" value="telegram-service" style="rounded=0;whiteSpace=wrap;html=1;" vertex="1" parent="1">
          <mxGeometry x="400" y="220" width="120" height="60" as="geometry" />
        </mxCell>
        <mxCell id="8zbn0bg1ZGtQ6dDu68Se-54" value="OLAP&lt;div&gt;(ClickHouse)&lt;/div&gt;" style="shape=cylinder3;whiteSpace=wrap;html=1;boundedLbl=1;backgroundOutline=1;size=15;" vertex="1" parent="1">
          <mxGeometry x="112.5" y="-40" width="75" height="100" as="geometry" />
        </mxCell>
        <mxCell id="8zbn0bg1ZGtQ6dDu68Se-55" style="edgeStyle=orthogonalEdgeStyle;rounded=0;orthogonalLoop=1;jettySize=auto;html=1;exitX=0.5;exitY=0;exitDx=0;exitDy=0;entryX=0.5;entryY=1;entryDx=0;entryDy=0;entryPerimeter=0;" edge="1" parent="1" source="8zbn0bg1ZGtQ6dDu68Se-39" target="8zbn0bg1ZGtQ6dDu68Se-54">
          <mxGeometry relative="1" as="geometry" />
        </mxCell>
        <mxCell id="8zbn0bg1ZGtQ6dDu68Se-56" value="OLAP&lt;div&gt;(ClickHouse)&lt;/div&gt;" style="shape=cylinder3;whiteSpace=wrap;html=1;boundedLbl=1;backgroundOutline=1;size=15;" vertex="1" parent="1">
          <mxGeometry x="630.63" y="505" width="78.75" height="105" as="geometry" />
        </mxCell>
        <mxCell id="8zbn0bg1ZGtQ6dDu68Se-57" style="edgeStyle=orthogonalEdgeStyle;rounded=0;orthogonalLoop=1;jettySize=auto;html=1;exitX=0.5;exitY=1;exitDx=0;exitDy=0;entryX=0.5;entryY=0;entryDx=0;entryDy=0;entryPerimeter=0;" edge="1" parent="1" source="8zbn0bg1ZGtQ6dDu68Se-43" target="8zbn0bg1ZGtQ6dDu68Se-56">
          <mxGeometry relative="1" as="geometry" />
        </mxCell>
        <mxCell id="8zbn0bg1ZGtQ6dDu68Se-60" value="OLTP&lt;div&gt;(PostgreSQL)&lt;/div&gt;" style="shape=cylinder3;whiteSpace=wrap;html=1;boundedLbl=1;backgroundOutline=1;size=15;" vertex="1" parent="1">
          <mxGeometry x="90.63" y="505" width="78.75" height="105" as="geometry" />
        </mxCell>
        <mxCell id="8zbn0bg1ZGtQ6dDu68Se-61" value="OLTP&lt;div&gt;(PostgreSQL)&lt;/div&gt;" style="shape=cylinder3;whiteSpace=wrap;html=1;boundedLbl=1;backgroundOutline=1;size=15;" vertex="1" parent="1">
          <mxGeometry x="300.63" y="505" width="78.75" height="105" as="geometry" />
        </mxCell>
        <mxCell id="8zbn0bg1ZGtQ6dDu68Se-62" style="edgeStyle=orthogonalEdgeStyle;rounded=0;orthogonalLoop=1;jettySize=auto;html=1;exitX=0.5;exitY=1;exitDx=0;exitDy=0;entryX=0.5;entryY=0;entryDx=0;entryDy=0;entryPerimeter=0;" edge="1" parent="1" source="8zbn0bg1ZGtQ6dDu68Se-35" target="8zbn0bg1ZGtQ6dDu68Se-60">
          <mxGeometry relative="1" as="geometry" />
        </mxCell>
        <mxCell id="8zbn0bg1ZGtQ6dDu68Se-64" value="transfer-service" style="rounded=0;whiteSpace=wrap;html=1;" vertex="1" parent="1">
          <mxGeometry x="340" y="630" width="120" height="60" as="geometry" />
        </mxCell>
        <mxCell id="8zbn0bg1ZGtQ6dDu68Se-65" style="edgeStyle=orthogonalEdgeStyle;rounded=0;orthogonalLoop=1;jettySize=auto;html=1;exitX=0;exitY=0.5;exitDx=0;exitDy=0;entryX=0.5;entryY=1;entryDx=0;entryDy=0;entryPerimeter=0;" edge="1" parent="1" source="8zbn0bg1ZGtQ6dDu68Se-64" target="8zbn0bg1ZGtQ6dDu68Se-60">
          <mxGeometry relative="1" as="geometry" />
        </mxCell>
        <mxCell id="8zbn0bg1ZGtQ6dDu68Se-68" value="SELECT JDBC" style="edgeLabel;html=1;align=center;verticalAlign=middle;resizable=0;points=[];" vertex="1" connectable="0" parent="8zbn0bg1ZGtQ6dDu68Se-65">
          <mxGeometry x="-0.0175" y="-4" relative="1" as="geometry">
            <mxPoint as="offset" />
          </mxGeometry>
        </mxCell>
        <mxCell id="8zbn0bg1ZGtQ6dDu68Se-66" style="edgeStyle=orthogonalEdgeStyle;rounded=0;orthogonalLoop=1;jettySize=auto;html=1;exitX=1;exitY=0.5;exitDx=0;exitDy=0;entryX=0.5;entryY=1;entryDx=0;entryDy=0;entryPerimeter=0;" edge="1" parent="1" source="8zbn0bg1ZGtQ6dDu68Se-64" target="8zbn0bg1ZGtQ6dDu68Se-56">
          <mxGeometry relative="1" as="geometry" />
        </mxCell>
        <mxCell id="8zbn0bg1ZGtQ6dDu68Se-67" value="transform" style="edgeLabel;html=1;align=center;verticalAlign=middle;resizable=0;points=[];" vertex="1" connectable="0" parent="8zbn0bg1ZGtQ6dDu68Se-66">
          <mxGeometry x="-0.3825" y="2" relative="1" as="geometry">
            <mxPoint as="offset" />
          </mxGeometry>
        </mxCell>
        <mxCell id="8zbn0bg1ZGtQ6dDu68Se-70" value="Object&lt;div&gt;Storage&lt;/div&gt;&lt;div&gt;(S3\FTP)&lt;/div&gt;" style="shape=cylinder3;whiteSpace=wrap;html=1;boundedLbl=1;backgroundOutline=1;size=15;" vertex="1" parent="1">
          <mxGeometry x="860" y="360" width="90" height="120" as="geometry" />
        </mxCell>
        <mxCell id="8zbn0bg1ZGtQ6dDu68Se-71" style="edgeStyle=orthogonalEdgeStyle;rounded=0;orthogonalLoop=1;jettySize=auto;html=1;exitX=1;exitY=0.5;exitDx=0;exitDy=0;entryX=0;entryY=0.5;entryDx=0;entryDy=0;entryPerimeter=0;" edge="1" parent="1" source="8zbn0bg1ZGtQ6dDu68Se-43" target="8zbn0bg1ZGtQ6dDu68Se-70">
          <mxGeometry relative="1" as="geometry" />
        </mxCell>
        <mxCell id="8zbn0bg1ZGtQ6dDu68Se-72" value="EXCEL" style="edgeLabel;html=1;align=center;verticalAlign=middle;resizable=0;points=[];" vertex="1" connectable="0" parent="8zbn0bg1ZGtQ6dDu68Se-71">
          <mxGeometry x="-0.2462" y="-1" relative="1" as="geometry">
            <mxPoint as="offset" />
          </mxGeometry>
        </mxCell>
        <mxCell id="8zbn0bg1ZGtQ6dDu68Se-74" value="OLTP&lt;div&gt;(PostgreSQL)&lt;/div&gt;" style="shape=cylinder3;whiteSpace=wrap;html=1;boundedLbl=1;backgroundOutline=1;size=15;" vertex="1" parent="1">
          <mxGeometry x="430.62" y="-160" width="78.75" height="105" as="geometry" />
        </mxCell>
        <mxCell id="8zbn0bg1ZGtQ6dDu68Se-75" style="edgeStyle=orthogonalEdgeStyle;rounded=0;orthogonalLoop=1;jettySize=auto;html=1;exitX=0.5;exitY=0;exitDx=0;exitDy=0;entryX=0.5;entryY=1;entryDx=0;entryDy=0;entryPerimeter=0;" edge="1" parent="1" source="8zbn0bg1ZGtQ6dDu68Se-31" target="8zbn0bg1ZGtQ6dDu68Se-74">
          <mxGeometry relative="1" as="geometry" />
        </mxCell>
        <mxCell id="8zbn0bg1ZGtQ6dDu68Se-76" value="OLTP&lt;div&gt;(PostgreSQL)&lt;/div&gt;" style="shape=cylinder3;whiteSpace=wrap;html=1;boundedLbl=1;backgroundOutline=1;size=15;" vertex="1" parent="1">
          <mxGeometry x="670.63" y="-70" width="78.75" height="105" as="geometry" />
        </mxCell>
        <mxCell id="8zbn0bg1ZGtQ6dDu68Se-77" style="edgeStyle=orthogonalEdgeStyle;rounded=0;orthogonalLoop=1;jettySize=auto;html=1;exitX=0.5;exitY=0;exitDx=0;exitDy=0;entryX=0.5;entryY=1;entryDx=0;entryDy=0;entryPerimeter=0;" edge="1" parent="1" source="8zbn0bg1ZGtQ6dDu68Se-47" target="8zbn0bg1ZGtQ6dDu68Se-76">
          <mxGeometry relative="1" as="geometry" />
        </mxCell>
      </root>
    </mxGraphModel>
  </diagram>
</mxfile>
